%TF.GenerationSoftware,KiCad,Pcbnew,10.0.3*%
%TF.CreationDate,2026-06-20T20:14:33+05:30*%
%TF.ProjectId,splitkeeb,73706c69-746b-4656-9562-2e6b69636164,rev?*%
%TF.SameCoordinates,Original*%
%TF.FileFunction,Copper,L1,Top*%
%TF.FilePolarity,Positive*%
%FSLAX46Y46*%
G04 Gerber Fmt 4.6, Leading zero omitted, Abs format (unit mm)*
G04 Created by KiCad (PCBNEW 10.0.3) date 2026-06-20 20:14:33*
%MOMM*%
%LPD*%
G01*
G04 APERTURE LIST*
G04 Aperture macros list*
%AMRoundRect*
0 Rectangle with rounded corners*
0 $1 Rounding radius*
0 $2 $3 $4 $5 $6 $7 $8 $9 X,Y pos of 4 corners*
0 Add a 4 corners polygon primitive as box body*
4,1,4,$2,$3,$4,$5,$6,$7,$8,$9,$2,$3,0*
0 Add four circle primitives for the rounded corners*
1,1,$1+$1,$2,$3*
1,1,$1+$1,$4,$5*
1,1,$1+$1,$6,$7*
1,1,$1+$1,$8,$9*
0 Add four rect primitives between the rounded corners*
20,1,$1+$1,$2,$3,$4,$5,0*
20,1,$1+$1,$4,$5,$6,$7,0*
20,1,$1+$1,$6,$7,$8,$9,0*
20,1,$1+$1,$8,$9,$2,$3,0*%
G04 Aperture macros list end*
%TA.AperFunction,ComponentPad*%
%ADD10RoundRect,0.750000X-0.750000X-0.750000X0.750000X-0.750000X0.750000X0.750000X-0.750000X0.750000X0*%
%TD*%
%TA.AperFunction,ViaPad*%
%ADD11C,0.600000*%
%TD*%
%TA.AperFunction,Conductor*%
%ADD12C,0.200000*%
%TD*%
G04 APERTURE END LIST*
D10*
%TO.P,U2,15,BAT_15*%
%TO.N,VBAT*%
X360078000Y-243426800D03*
%TO.P,U2,16,GND_16*%
%TO.N,GND*%
X360078000Y-240026800D03*
%TD*%
%TO.P,U1,15,BAT_15*%
%TO.N,VBAT*%
X82617500Y-243478500D03*
%TO.P,U1,16,GND_16*%
%TO.N,GND*%
X82617500Y-240078500D03*
%TD*%
D11*
%TO.N,column 0*%
X360460000Y-237020000D03*
X183127500Y-264450000D03*
X78702500Y-240875000D03*
X80027500Y-239250000D03*
X77202500Y-246900000D03*
X231160000Y-250145000D03*
%TO.N,column 2*%
X146852500Y-226300000D03*
X90806000Y-243078500D03*
%TO.N,column 4*%
X91102500Y-248150000D03*
X110452500Y-247425000D03*
%TO.N,column 1*%
X161052500Y-221150000D03*
X366185000Y-243945000D03*
X251175000Y-269550000D03*
X90766000Y-240538500D03*
%TO.N,column 3*%
X91177500Y-244950000D03*
X127927500Y-235200000D03*
%TO.N,row 2*%
X122777500Y-257200000D03*
X341985000Y-250770000D03*
X244110000Y-271495000D03*
X103752500Y-266750000D03*
X319010000Y-257545000D03*
X280885000Y-257570000D03*
X141877500Y-247750000D03*
X261835000Y-267220000D03*
X299760000Y-248295000D03*
X299760000Y-248295000D03*
X72977500Y-248150000D03*
X338135000Y-267070000D03*
%TO.N,row 1*%
X161127500Y-238400000D03*
X318860000Y-238445000D03*
X179977500Y-247900000D03*
X188077500Y-253175000D03*
X337985000Y-247895000D03*
X122927500Y-238550000D03*
X244210000Y-252445000D03*
X280935000Y-238545000D03*
X261910000Y-248145000D03*
X142127500Y-228975000D03*
X103827500Y-247900000D03*
X300010000Y-229295000D03*
X73102500Y-245625000D03*
%TO.N,row 3*%
X299985000Y-267170000D03*
X93452500Y-285225000D03*
X342810000Y-251395000D03*
X339585000Y-280295000D03*
X70102500Y-258475000D03*
X319185000Y-276470000D03*
X337385000Y-285520000D03*
%TO.N,row 0*%
X299860000Y-210145000D03*
X141902500Y-210025000D03*
X129377500Y-210375000D03*
X122802500Y-219225000D03*
X244110000Y-235120000D03*
X338135000Y-228970000D03*
X160927500Y-219750000D03*
X104277500Y-228850000D03*
X280985000Y-219570000D03*
X72202500Y-243200000D03*
X261985000Y-228870000D03*
X318910000Y-219495000D03*
X199127500Y-238400000D03*
X180002500Y-229225000D03*
%TO.N,BT_PIN*%
X74477500Y-242525000D03*
X79052500Y-262350000D03*
X76327500Y-256575000D03*
X74477500Y-239475000D03*
%TO.N,GND*%
X350442500Y-238215000D03*
%TD*%
%TO.N,column 0*%
D12*
X231480000Y-250465000D02*
X231160000Y-250145000D01*
X242724912Y-250465000D02*
X231480000Y-250465000D01*
X183127500Y-264450000D02*
X173002500Y-264450000D01*
X117304098Y-245625000D02*
X113729098Y-249200000D01*
X162002500Y-253450000D02*
X151677500Y-253450000D01*
X360460000Y-237020000D02*
X359635000Y-236195000D01*
X78702500Y-240875000D02*
X80027500Y-239550000D01*
X359635000Y-236195000D02*
X332624150Y-236195000D01*
X140552500Y-245625000D02*
X117304098Y-245625000D01*
X173002500Y-264450000D02*
X162002500Y-253450000D01*
X79502500Y-249200000D02*
X77202500Y-246900000D01*
X318514150Y-222085000D02*
X286665902Y-222085000D01*
X113729098Y-249200000D02*
X79502500Y-249200000D01*
X245269912Y-247920000D02*
X242724912Y-250465000D01*
X80027500Y-239550000D02*
X80027500Y-239250000D01*
X151677500Y-253450000D02*
X142202500Y-243975000D01*
X260830902Y-247920000D02*
X245269912Y-247920000D01*
X332624150Y-236195000D02*
X318514150Y-222085000D01*
X286665902Y-222085000D02*
X260830902Y-247920000D01*
X142202500Y-243975000D02*
X140552500Y-245625000D01*
%TO.N,column 2*%
X110142628Y-243078500D02*
X123096128Y-230125000D01*
X133336814Y-230125000D02*
X137161814Y-226300000D01*
X123096128Y-230125000D02*
X133336814Y-230125000D01*
X90806000Y-243078500D02*
X110142628Y-243078500D01*
X137161814Y-226300000D02*
X146852500Y-226300000D01*
%TO.N,column 4*%
X91577500Y-248625000D02*
X109252500Y-248625000D01*
X91102500Y-248150000D02*
X91577500Y-248625000D01*
X109252500Y-248625000D02*
X110452500Y-247425000D01*
%TO.N,column 1*%
X366185000Y-243945000D02*
X366185000Y-283495000D01*
X91032500Y-240805000D02*
X109922500Y-240805000D01*
X121702500Y-229025000D02*
X121702500Y-228750000D01*
X366185000Y-283495000D02*
X361585000Y-288095000D01*
X315260000Y-288095000D02*
X296735000Y-269570000D01*
X121702500Y-228750000D02*
X128827500Y-221625000D01*
X109922500Y-240805000D02*
X121702500Y-229025000D01*
X160577500Y-221625000D02*
X161052500Y-221150000D01*
X361585000Y-288095000D02*
X315260000Y-288095000D01*
X128827500Y-221625000D02*
X160577500Y-221625000D01*
X90766000Y-240538500D02*
X91032500Y-240805000D01*
X296735000Y-269570000D02*
X251210000Y-269570000D01*
%TO.N,column 3*%
X108836814Y-244950000D02*
X118586814Y-235200000D01*
X118586814Y-235200000D02*
X127927500Y-235200000D01*
X91177500Y-244950000D02*
X108836814Y-244950000D01*
%TO.N,row 2*%
X122702500Y-257275000D02*
X122777500Y-257200000D01*
X125102500Y-257275000D02*
X134527500Y-247850000D01*
X341985000Y-266295000D02*
X341985000Y-250770000D01*
X91802500Y-266975000D02*
X103527500Y-266975000D01*
X115152500Y-257275000D02*
X122702500Y-257275000D01*
X261660000Y-267395000D02*
X261835000Y-267220000D01*
X261835000Y-267220000D02*
X264435000Y-267220000D01*
X283035000Y-257570000D02*
X292160000Y-248445000D01*
X141777500Y-247850000D02*
X141877500Y-247750000D01*
X319010000Y-257570000D02*
X319010000Y-257545000D01*
X299610000Y-248445000D02*
X299760000Y-248295000D01*
X304685000Y-248295000D02*
X314135000Y-257745000D01*
X314135000Y-257745000D02*
X318835000Y-257745000D01*
X72977500Y-248150000D02*
X91802500Y-266975000D01*
X105452500Y-266975000D02*
X115152500Y-257275000D01*
X273910000Y-257745000D02*
X280710000Y-257745000D01*
X299760000Y-248295000D02*
X304685000Y-248295000D01*
X280885000Y-257570000D02*
X283035000Y-257570000D01*
X341210000Y-267070000D02*
X341985000Y-266295000D01*
X264435000Y-267220000D02*
X273910000Y-257745000D01*
X244110000Y-271495000D02*
X248210000Y-267395000D01*
X319010000Y-257545000D02*
X328635000Y-267170000D01*
X248210000Y-267395000D02*
X261660000Y-267395000D01*
X318835000Y-257745000D02*
X319010000Y-257570000D01*
X122777500Y-257200000D02*
X122852500Y-257275000D01*
X134527500Y-247850000D02*
X141777500Y-247850000D01*
X280710000Y-257745000D02*
X280885000Y-257570000D01*
X103527500Y-266975000D02*
X103752500Y-266750000D01*
X328635000Y-267170000D02*
X338035000Y-267170000D01*
X338035000Y-267170000D02*
X338135000Y-267070000D01*
X103752500Y-266750000D02*
X103977500Y-266975000D01*
X292160000Y-248445000D02*
X299610000Y-248445000D01*
X103977500Y-266975000D02*
X105452500Y-266975000D01*
X338135000Y-267070000D02*
X341210000Y-267070000D01*
X122852500Y-257275000D02*
X125102500Y-257275000D01*
%TO.N,row 1*%
X188077500Y-253175000D02*
X183052500Y-248150000D01*
X318835000Y-238445000D02*
X318860000Y-238445000D01*
X273135000Y-238720000D02*
X280760000Y-238720000D01*
X73102500Y-245625000D02*
X101552500Y-245625000D01*
X300010000Y-229295000D02*
X309435000Y-238720000D01*
X248335000Y-248320000D02*
X261735000Y-248320000D01*
X261735000Y-248320000D02*
X261910000Y-248145000D01*
X183052500Y-248150000D02*
X180227500Y-248150000D01*
X300010000Y-229320000D02*
X300010000Y-229295000D01*
X123227500Y-238850000D02*
X122927500Y-238550000D01*
X309435000Y-238720000D02*
X318560000Y-238720000D01*
X122927500Y-238550000D02*
X115802500Y-238550000D01*
X263710000Y-248145000D02*
X273135000Y-238720000D01*
X299835000Y-229495000D02*
X300010000Y-229320000D01*
X318860000Y-238445000D02*
X328435000Y-248020000D01*
X283110000Y-238545000D02*
X292160000Y-229495000D01*
X106127500Y-248225000D02*
X104027500Y-248225000D01*
X161377500Y-238650000D02*
X165877500Y-238650000D01*
X337860000Y-248020000D02*
X337985000Y-247895000D01*
X104027500Y-248225000D02*
X103802500Y-248000000D01*
X175127500Y-247900000D02*
X179977500Y-247900000D01*
X101552500Y-245625000D02*
X103827500Y-247900000D01*
X165877500Y-238650000D02*
X175127500Y-247900000D01*
X161127500Y-238400000D02*
X161377500Y-238650000D01*
X328435000Y-248020000D02*
X337860000Y-248020000D01*
X244210000Y-252445000D02*
X248335000Y-248320000D01*
X125177500Y-238850000D02*
X123227500Y-238850000D01*
X280935000Y-238545000D02*
X283110000Y-238545000D01*
X180227500Y-248150000D02*
X179977500Y-247900000D01*
X292160000Y-229495000D02*
X299835000Y-229495000D01*
X280760000Y-238720000D02*
X280935000Y-238545000D01*
X151552500Y-238400000D02*
X142127500Y-228975000D01*
X161127500Y-238400000D02*
X151552500Y-238400000D01*
X318560000Y-238720000D02*
X318835000Y-238445000D01*
X261910000Y-248145000D02*
X263710000Y-248145000D01*
X142127500Y-228975000D02*
X135052500Y-228975000D01*
X115802500Y-238550000D02*
X106127500Y-248225000D01*
X135052500Y-228975000D02*
X125177500Y-238850000D01*
%TO.N,row 3*%
X328235000Y-285520000D02*
X337385000Y-285520000D01*
X339585000Y-280295000D02*
X342810000Y-277070000D01*
X319035000Y-276620000D02*
X319185000Y-276470000D01*
X87152500Y-263050000D02*
X91202500Y-267100000D01*
X342810000Y-277070000D02*
X342810000Y-251395000D01*
X309435000Y-276620000D02*
X319035000Y-276620000D01*
X91202500Y-282975000D02*
X93452500Y-285225000D01*
X299985000Y-267170000D02*
X309435000Y-276620000D01*
X70102500Y-258475000D02*
X74677500Y-263050000D01*
X74677500Y-263050000D02*
X87152500Y-263050000D01*
X91202500Y-267100000D02*
X91202500Y-282975000D01*
X319185000Y-276470000D02*
X328235000Y-285520000D01*
%TO.N,row 0*%
X75177500Y-243200000D02*
X72202500Y-243200000D01*
X261985000Y-228895000D02*
X261985000Y-228870000D01*
X141552500Y-210375000D02*
X141902500Y-210025000D01*
X328635000Y-229220000D02*
X337885000Y-229220000D01*
X280910000Y-219645000D02*
X280985000Y-219570000D01*
X280985000Y-219570000D02*
X281710000Y-219570000D01*
X281710000Y-219570000D02*
X290985000Y-210295000D01*
X129377500Y-210375000D02*
X141552500Y-210375000D01*
X86552500Y-237300000D02*
X81077500Y-237300000D01*
X170577500Y-229400000D02*
X179827500Y-229400000D01*
X104277500Y-228850000D02*
X113902500Y-219225000D01*
X180002500Y-229225000D02*
X189452500Y-238675000D01*
X261985000Y-228870000D02*
X262435000Y-228870000D01*
X160927500Y-219750000D02*
X170577500Y-229400000D01*
X337885000Y-229220000D02*
X338135000Y-228970000D01*
X299710000Y-210295000D02*
X299860000Y-210145000D01*
X318910000Y-219495000D02*
X328635000Y-229220000D01*
X313085000Y-219695000D02*
X318710000Y-219695000D01*
X249835000Y-229395000D02*
X261485000Y-229395000D01*
X81077500Y-237300000D02*
X75177500Y-243200000D01*
X141902500Y-210025000D02*
X152002500Y-220125000D01*
X261485000Y-229395000D02*
X261985000Y-228895000D01*
X152002500Y-220125000D02*
X160552500Y-220125000D01*
X318710000Y-219695000D02*
X318910000Y-219495000D01*
X271660000Y-219645000D02*
X280910000Y-219645000D01*
X299860000Y-210145000D02*
X303535000Y-210145000D01*
X95002500Y-228850000D02*
X86552500Y-237300000D01*
X244110000Y-235120000D02*
X249835000Y-229395000D01*
X179827500Y-229400000D02*
X180002500Y-229225000D01*
X160552500Y-220125000D02*
X160927500Y-219750000D01*
X303535000Y-210145000D02*
X313085000Y-219695000D01*
X189452500Y-238675000D02*
X198852500Y-238675000D01*
X198852500Y-238675000D02*
X199127500Y-238400000D01*
X113902500Y-219225000D02*
X122802500Y-219225000D01*
X262435000Y-228870000D02*
X271660000Y-219645000D01*
X290985000Y-210295000D02*
X299710000Y-210295000D01*
X104277500Y-228850000D02*
X95002500Y-228850000D01*
%TO.N,BT_PIN*%
X74477500Y-239475000D02*
X74477500Y-242525000D01*
X76327500Y-256575000D02*
X78552500Y-258800000D01*
X78552500Y-261850000D02*
X79052500Y-262350000D01*
X78552500Y-258800000D02*
X78552500Y-261850000D01*
%TO.N,GND*%
X360078000Y-240026800D02*
X352254300Y-240026800D01*
X352254300Y-240026800D02*
X350442500Y-238215000D01*
%TD*%
M02*
