M48
; DRILL file KiCad 10.0.3 date 2026-06-20T20:14:31
; FORMAT={-:-/ absolute / metric / decimal}
; #@! TF.CreationDate,2026-06-20T20:14:31+05:30
; #@! TF.GenerationSoftware,Kicad,Pcbnew,10.0.3
; #@! TF.FileFunction,Plated,1,2,PTH
FMAT,2
METRIC
; #@! TA.AperFunction,Plated,PTH,ViaDrill
T1C0.300
; #@! TA.AperFunction,Plated,PTH,ComponentDrill
T2C2.500
%
G90
G05
T1
X70.102Y-258.475
X72.203Y-243.2
X72.977Y-248.15
X73.102Y-245.625
X74.477Y-239.475
X74.477Y-242.525
X76.328Y-256.575
X77.203Y-246.9
X78.703Y-240.875
X79.052Y-262.35
X80.028Y-239.25
X90.766Y-240.538
X90.806Y-243.078
X91.102Y-248.15
X91.177Y-244.95
X93.453Y-285.225
X103.752Y-266.75
X103.828Y-247.9
X104.277Y-228.85
X110.453Y-247.425
X122.777Y-257.2
X122.802Y-219.225
X122.927Y-238.55
X127.927Y-235.2
X129.377Y-210.375
X141.877Y-247.75
X141.903Y-210.025
X142.127Y-228.975
X146.852Y-226.3
X160.927Y-219.75
X161.052Y-221.15
X161.127Y-238.4
X179.977Y-247.9
X180.002Y-229.225
X183.127Y-264.45
X188.077Y-253.175
X199.127Y-238.4
X231.16Y-250.145
X244.11Y-235.12
X244.11Y-271.495
X244.21Y-252.445
X251.175Y-269.55
X261.835Y-267.22
X261.91Y-248.145
X261.985Y-228.87
X280.885Y-257.57
X280.935Y-238.545
X280.985Y-219.57
X299.76Y-248.295
X299.76Y-248.295
X299.86Y-210.145
X299.985Y-267.17
X300.01Y-229.295
X318.86Y-238.445
X318.91Y-219.495
X319.01Y-257.545
X319.185Y-276.47
X337.385Y-285.52
X337.985Y-247.895
X338.135Y-228.97
X338.135Y-267.07
X339.585Y-280.295
X341.985Y-250.77
X342.81Y-251.395
X350.442Y-238.215
X360.46Y-237.02
X366.185Y-243.945
T2
X82.617Y-240.078
X82.617Y-243.478
X360.078Y-240.027
X360.078Y-243.427
M30
