%TF.GenerationSoftware,KiCad,Pcbnew,10.0.3*%
%TF.CreationDate,2026-06-20T20:14:33+05:30*%
%TF.ProjectId,splitkeeb,73706c69-746b-4656-9562-2e6b69636164,rev?*%
%TF.SameCoordinates,Original*%
%TF.FileFunction,Copper,L2,Bot*%
%TF.FilePolarity,Positive*%
%FSLAX46Y46*%
G04 Gerber Fmt 4.6, Leading zero omitted, Abs format (unit mm)*
G04 Created by KiCad (PCBNEW 10.0.3) date 2026-06-20 20:14:33*
%MOMM*%
%LPD*%
G01*
G04 APERTURE LIST*
G04 Aperture macros list*
%AMRoundRect*
0 Rectangle with rounded corners*
0 $1 Rounding radius*
0 $2 $3 $4 $5 $6 $7 $8 $9 X,Y pos of 4 corners*
0 Add a 4 corners polygon primitive as box body*
4,1,4,$2,$3,$4,$5,$6,$7,$8,$9,$2,$3,0*
0 Add four circle primitives for the rounded corners*
1,1,$1+$1,$2,$3*
1,1,$1+$1,$4,$5*
1,1,$1+$1,$6,$7*
1,1,$1+$1,$8,$9*
0 Add four rect primitives between the rounded corners*
20,1,$1+$1,$2,$3,$4,$5,0*
20,1,$1+$1,$4,$5,$6,$7,0*
20,1,$1+$1,$6,$7,$8,$9,0*
20,1,$1+$1,$8,$9,$2,$3,0*%
G04 Aperture macros list end*
%TA.AperFunction,SMDPad,CuDef*%
%ADD10RoundRect,0.250000X-1.025000X-1.000000X1.025000X-1.000000X1.025000X1.000000X-1.025000X1.000000X0*%
%TD*%
%TA.AperFunction,SMDPad,CuDef*%
%ADD11C,2.000000*%
%TD*%
%TA.AperFunction,SMDPad,CuDef*%
%ADD12RoundRect,0.112500X-0.187500X-0.112500X0.187500X-0.112500X0.187500X0.112500X-0.187500X0.112500X0*%
%TD*%
%TA.AperFunction,SMDPad,CuDef*%
%ADD13RoundRect,0.250000X-0.450000X0.262500X-0.450000X-0.262500X0.450000X-0.262500X0.450000X0.262500X0*%
%TD*%
%TA.AperFunction,SMDPad,CuDef*%
%ADD14RoundRect,0.500000X0.875000X0.500000X-0.875000X0.500000X-0.875000X-0.500000X0.875000X-0.500000X0*%
%TD*%
%TA.AperFunction,ComponentPad*%
%ADD15RoundRect,0.750000X-0.750000X-0.750000X0.750000X-0.750000X0.750000X0.750000X-0.750000X0.750000X0*%
%TD*%
%TA.AperFunction,SMDPad,CuDef*%
%ADD16RoundRect,0.275000X-0.275000X0.975000X-0.275000X-0.975000X0.275000X-0.975000X0.275000X0.975000X0*%
%TD*%
%TA.AperFunction,SMDPad,CuDef*%
%ADD17C,1.700000*%
%TD*%
%TA.AperFunction,SMDPad,CuDef*%
%ADD18RoundRect,0.250000X-0.262500X-0.450000X0.262500X-0.450000X0.262500X0.450000X-0.262500X0.450000X0*%
%TD*%
%TA.AperFunction,SMDPad,CuDef*%
%ADD19RoundRect,0.250000X0.262500X0.450000X-0.262500X0.450000X-0.262500X-0.450000X0.262500X-0.450000X0*%
%TD*%
%TA.AperFunction,ViaPad*%
%ADD20C,0.600000*%
%TD*%
%TA.AperFunction,Conductor*%
%ADD21C,0.200000*%
%TD*%
G04 APERTURE END LIST*
D10*
%TO.P,SW7,1,1_1*%
%TO.N,column 0*%
X187442500Y-245460000D03*
%TO.P,SW7,2,2_2*%
%TO.N,Net-(D7-A)*%
X200369500Y-242920000D03*
%TD*%
%TO.P,SW36,1,1_1*%
%TO.N,column 2*%
X269282500Y-245550000D03*
%TO.P,SW36,2,2_2*%
%TO.N,Net-(D36-A)*%
X282209500Y-243010000D03*
%TD*%
%TO.P,SW12,1,1_1*%
%TO.N,column 5*%
X92150500Y-235915000D03*
%TO.P,SW12,2,2_2*%
%TO.N,Net-(D12-A)*%
X105077500Y-233375000D03*
%TD*%
%TO.P,SW11,1,1_1*%
%TO.N,column 4*%
X111192500Y-226360000D03*
%TO.P,SW11,2,2_2*%
%TO.N,Net-(D11-A)*%
X124119500Y-223820000D03*
%TD*%
%TO.P,SW23,1,1_1*%
%TO.N,column 1*%
X250232500Y-217025000D03*
%TO.P,SW23,2,2_2*%
%TO.N,Net-(D23-A)*%
X263159500Y-214485000D03*
%TD*%
%TO.P,SW26,1,1_1*%
%TO.N,column 4*%
X307407500Y-207500000D03*
%TO.P,SW26,2,2_2*%
%TO.N,Net-(D26-A)*%
X320334500Y-204960000D03*
%TD*%
%TO.P,SW14,1,1_1*%
%TO.N,column 1*%
X168377500Y-254990000D03*
%TO.P,SW14,2,2_2*%
%TO.N,Net-(D14-A)*%
X181304500Y-252450000D03*
%TD*%
%TO.P,SW3,1,1_1*%
%TO.N,column 2*%
X149317500Y-207335000D03*
%TO.P,SW3,2,2_2*%
%TO.N,Net-(D3-A)*%
X162244500Y-204795000D03*
%TD*%
%TO.P,SW18,1,1_1*%
%TO.N,column 5*%
X92142500Y-254960000D03*
%TO.P,SW18,2,2_2*%
%TO.N,Net-(D18-A)*%
X105069500Y-252420000D03*
%TD*%
%TO.P,SW34,1,1_1*%
%TO.N,column 0*%
X231182500Y-264625000D03*
%TO.P,SW34,2,2_2*%
%TO.N,Net-(D34-A)*%
X244109500Y-262085000D03*
%TD*%
%TO.P,SW39,1,1_1*%
%TO.N,column 5*%
X326502500Y-255075000D03*
%TO.P,SW39,2,2_2*%
%TO.N,Net-(D39-A)*%
X339429500Y-252535000D03*
%TD*%
%TO.P,SW10,1,1_1*%
%TO.N,column 3*%
X130267500Y-216735000D03*
%TO.P,SW10,2,2_2*%
%TO.N,Net-(D10-A)*%
X143194500Y-214195000D03*
%TD*%
%TO.P,SW22,1,1_1*%
%TO.N,column 0*%
X231175000Y-226600000D03*
%TO.P,SW22,2,2_2*%
%TO.N,Net-(D22-A)*%
X244102000Y-224060000D03*
%TD*%
%TO.P,SW33,1,1_1*%
%TO.N,column 5*%
X326527500Y-236025000D03*
%TO.P,SW33,2,2_2*%
%TO.N,Net-(D33-A)*%
X339454500Y-233485000D03*
%TD*%
%TO.P,SW5,1,1_1*%
%TO.N,column 4*%
X111185000Y-207260000D03*
%TO.P,SW5,2,2_2*%
%TO.N,Net-(D5-A)*%
X124112000Y-204720000D03*
%TD*%
%TO.P,SW38,1,1_1*%
%TO.N,column 4*%
X307392500Y-245630000D03*
%TO.P,SW38,2,2_2*%
%TO.N,Net-(D38-A)*%
X320319500Y-243090000D03*
%TD*%
%TO.P,SW30,1,1_1*%
%TO.N,column 2*%
X269302500Y-226500000D03*
%TO.P,SW30,2,2_2*%
%TO.N,Net-(D30-A)*%
X282229500Y-223960000D03*
%TD*%
%TO.P,SW27,1,1_1*%
%TO.N,column 5*%
X326532500Y-216975000D03*
%TO.P,SW27,2,2_2*%
%TO.N,Net-(D27-A)*%
X339459500Y-214435000D03*
%TD*%
%TO.P,SW6,1,1_1*%
%TO.N,column 5*%
X92147500Y-216835000D03*
%TO.P,SW6,2,2_2*%
%TO.N,Net-(D6-A)*%
X105074500Y-214295000D03*
%TD*%
%TO.P,SW21,1,1_1*%
%TO.N,column 5*%
X92137500Y-274060000D03*
%TO.P,SW21,2,2_2*%
%TO.N,Net-(D21-A)*%
X105064500Y-271520000D03*
%TD*%
%TO.P,SW40,1,1_1*%
%TO.N,column 3*%
X288367500Y-255340000D03*
%TO.P,SW40,2,2_2*%
%TO.N,Net-(D40-A)*%
X301294500Y-252800000D03*
%TD*%
%TO.P,SW41,1,1_1*%
%TO.N,column 4*%
X307417500Y-264705000D03*
%TO.P,SW41,2,2_2*%
%TO.N,Net-(D41-A)*%
X320344500Y-262165000D03*
%TD*%
%TO.P,SW4,1,1_1*%
%TO.N,column 3*%
X130267500Y-197660000D03*
%TO.P,SW4,2,2_2*%
%TO.N,Net-(D4-A)*%
X143194500Y-195120000D03*
%TD*%
%TO.P,SW13,1,1_1*%
%TO.N,column 0*%
X187450500Y-264440000D03*
%TO.P,SW13,2,2_2*%
%TO.N,Net-(D13-A)*%
X200377500Y-261900000D03*
%TD*%
%TO.P,SW37,1,1_1*%
%TO.N,column 3*%
X288342500Y-236290000D03*
%TO.P,SW37,2,2_2*%
%TO.N,Net-(D37-A)*%
X301269500Y-233750000D03*
%TD*%
%TO.P,SW2,1,1_1*%
%TO.N,column 1*%
X168360000Y-216785000D03*
%TO.P,SW2,2,2_2*%
%TO.N,Net-(D2-A)*%
X181287000Y-214245000D03*
%TD*%
%TO.P,SW32,1,1_1*%
%TO.N,column 4*%
X307392500Y-226565000D03*
%TO.P,SW32,2,2_2*%
%TO.N,Net-(D32-A)*%
X320319500Y-224025000D03*
%TD*%
%TO.P,SW24,1,1_1*%
%TO.N,column 2*%
X269282500Y-207425000D03*
%TO.P,SW24,2,2_2*%
%TO.N,Net-(D24-A)*%
X282209500Y-204885000D03*
%TD*%
%TO.P,SW1,1,1_1*%
%TO.N,column 0*%
X187460000Y-226335000D03*
%TO.P,SW1,2,2_2*%
%TO.N,Net-(D1-A)*%
X200387000Y-223795000D03*
%TD*%
%TO.P,SW15,1,1_1*%
%TO.N,column 2*%
X149392500Y-245385000D03*
%TO.P,SW15,2,2_2*%
%TO.N,Net-(D15-A)*%
X162319500Y-242845000D03*
%TD*%
%TO.P,SW16,1,1_1*%
%TO.N,column 3*%
X130267500Y-235810000D03*
%TO.P,SW16,2,2_2*%
%TO.N,Net-(D16-A)*%
X143194500Y-233270000D03*
%TD*%
%TO.P,SW20,1,1_1*%
%TO.N,column 4*%
X111242500Y-264460000D03*
%TO.P,SW20,2,2_2*%
%TO.N,Net-(D20-A)*%
X124169500Y-261920000D03*
%TD*%
%TO.P,SW19,1,1_1*%
%TO.N,column 3*%
X130287500Y-254860000D03*
%TO.P,SW19,2,2_2*%
%TO.N,Net-(D19-A)*%
X143214500Y-252320000D03*
%TD*%
%TO.P,SW8,1,1_1*%
%TO.N,column 1*%
X168377500Y-235875000D03*
%TO.P,SW8,2,2_2*%
%TO.N,Net-(D8-A)*%
X181304500Y-233335000D03*
%TD*%
%TO.P,SW17,1,1_1*%
%TO.N,column 4*%
X111192500Y-245435000D03*
%TO.P,SW17,2,2_2*%
%TO.N,Net-(D17-A)*%
X124119500Y-242895000D03*
%TD*%
%TO.P,SW42,1,1_1*%
%TO.N,column 5*%
X326482500Y-274125000D03*
%TO.P,SW42,2,2_2*%
%TO.N,Net-(D42-A)*%
X339409500Y-271585000D03*
%TD*%
%TO.P,SW25,1,1_1*%
%TO.N,column 3*%
X288350000Y-198125000D03*
%TO.P,SW25,2,2_2*%
%TO.N,Net-(D25-A)*%
X301277000Y-195585000D03*
%TD*%
%TO.P,SW31,1,1_1*%
%TO.N,column 3*%
X288342500Y-217190000D03*
%TO.P,SW31,2,2_2*%
%TO.N,Net-(D31-A)*%
X301269500Y-214650000D03*
%TD*%
%TO.P,SW28,1,1_1*%
%TO.N,column 0*%
X231177500Y-245575000D03*
%TO.P,SW28,2,2_2*%
%TO.N,Net-(D28-A)*%
X244104500Y-243035000D03*
%TD*%
%TO.P,SW9,1,1_1*%
%TO.N,column 2*%
X149372500Y-226335000D03*
%TO.P,SW9,2,2_2*%
%TO.N,Net-(D9-A)*%
X162299500Y-223795000D03*
%TD*%
%TO.P,SW35,1,1_1*%
%TO.N,column 1*%
X250242500Y-255165000D03*
%TO.P,SW35,2,2_2*%
%TO.N,Net-(D35-A)*%
X263169500Y-252625000D03*
%TD*%
%TO.P,SW29,1,1_1*%
%TO.N,column 1*%
X250225000Y-236100000D03*
%TO.P,SW29,2,2_2*%
%TO.N,Net-(D29-A)*%
X263152000Y-233560000D03*
%TD*%
D11*
%TO.P,TP3,1,1_1*%
%TO.N,VBAT*%
X361667500Y-260790000D03*
%TD*%
D12*
%TO.P,D13,1,K_1*%
%TO.N,row 2*%
X199152500Y-275525000D03*
%TO.P,D13,2,A_2*%
%TO.N,Net-(D13-A)*%
X201252500Y-275525000D03*
%TD*%
%TO.P,D32,1,K_1*%
%TO.N,row 1*%
X318892500Y-237690000D03*
%TO.P,D32,2,A_2*%
%TO.N,Net-(D32-A)*%
X320992500Y-237690000D03*
%TD*%
%TO.P,D28,1,K_1*%
%TO.N,row 1*%
X242842500Y-256615000D03*
%TO.P,D28,2,A_2*%
%TO.N,Net-(D28-A)*%
X244942500Y-256615000D03*
%TD*%
%TO.P,D11,1,K_1*%
%TO.N,row 1*%
X122902500Y-237450000D03*
%TO.P,D11,2,A_2*%
%TO.N,Net-(D11-A)*%
X125002500Y-237450000D03*
%TD*%
%TO.P,D19,1,K_1*%
%TO.N,row 3*%
X141927500Y-265950000D03*
%TO.P,D19,2,A_2*%
%TO.N,Net-(D19-A)*%
X144027500Y-265950000D03*
%TD*%
%TO.P,D41,1,K_1*%
%TO.N,row 3*%
X319192500Y-275765000D03*
%TO.P,D41,2,A_2*%
%TO.N,Net-(D41-A)*%
X321292500Y-275765000D03*
%TD*%
%TO.P,D34,1,K_1*%
%TO.N,row 2*%
X242692500Y-275790000D03*
%TO.P,D34,2,A_2*%
%TO.N,Net-(D34-A)*%
X244792500Y-275790000D03*
%TD*%
%TO.P,D10,1,K_1*%
%TO.N,row 1*%
X142077500Y-227900000D03*
%TO.P,D10,2,A_2*%
%TO.N,Net-(D10-A)*%
X144177500Y-227900000D03*
%TD*%
%TO.P,D37,1,K_1*%
%TO.N,row 2*%
X299867500Y-247390000D03*
%TO.P,D37,2,A_2*%
%TO.N,Net-(D37-A)*%
X301967500Y-247390000D03*
%TD*%
%TO.P,D27,1,K_1*%
%TO.N,row 0*%
X338192500Y-228140000D03*
%TO.P,D27,2,A_2*%
%TO.N,Net-(D27-A)*%
X340292500Y-228140000D03*
%TD*%
%TO.P,D12,1,K_1*%
%TO.N,row 1*%
X103777500Y-247050000D03*
%TO.P,D12,2,A_2*%
%TO.N,Net-(D12-A)*%
X105877500Y-247050000D03*
%TD*%
%TO.P,D23,1,K_1*%
%TO.N,row 0*%
X261992500Y-227940000D03*
%TO.P,D23,2,A_2*%
%TO.N,Net-(D23-A)*%
X264092500Y-227940000D03*
%TD*%
%TO.P,D8,1,K_1*%
%TO.N,row 1*%
X179977500Y-246900000D03*
%TO.P,D8,2,A_2*%
%TO.N,Net-(D8-A)*%
X182077500Y-246900000D03*
%TD*%
%TO.P,D2,1,K_1*%
%TO.N,row 0*%
X180002500Y-227875000D03*
%TO.P,D2,2,A_2*%
%TO.N,Net-(D2-A)*%
X182102500Y-227875000D03*
%TD*%
%TO.P,D6,1,K_1*%
%TO.N,row 0*%
X104077500Y-227825000D03*
%TO.P,D6,2,A_2*%
%TO.N,Net-(D6-A)*%
X106177500Y-227825000D03*
%TD*%
%TO.P,D20,1,K_1*%
%TO.N,row 3*%
X123327500Y-275550000D03*
%TO.P,D20,2,A_2*%
%TO.N,Net-(D20-A)*%
X125427500Y-275550000D03*
%TD*%
D11*
%TO.P,TP1,1,1_1*%
%TO.N,VBAT*%
X72252500Y-260325000D03*
%TD*%
D12*
%TO.P,D17,1,K_1*%
%TO.N,row 2*%
X122827500Y-256550000D03*
%TO.P,D17,2,A_2*%
%TO.N,Net-(D17-A)*%
X124927500Y-256550000D03*
%TD*%
D13*
%TO.P,R2,1*%
%TO.N,BT_PIN*%
X81102500Y-265975000D03*
%TO.P,R2,2*%
%TO.N,GND*%
X81102500Y-267800000D03*
%TD*%
D12*
%TO.P,D38,1,K_1*%
%TO.N,row 2*%
X319017500Y-256790000D03*
%TO.P,D38,2,A_2*%
%TO.N,Net-(D38-A)*%
X321117500Y-256790000D03*
%TD*%
%TO.P,D4,1,K_1*%
%TO.N,row 0*%
X141977500Y-208625000D03*
%TO.P,D4,2,A_2*%
%TO.N,Net-(D4-A)*%
X144077500Y-208625000D03*
%TD*%
%TO.P,D1,1,K_1*%
%TO.N,row 0*%
X199102500Y-237575000D03*
%TO.P,D1,2,A_2*%
%TO.N,Net-(D1-A)*%
X201202500Y-237575000D03*
%TD*%
D14*
%TO.P,U2,1,P0.02_A0_D0_1*%
%TO.N,BT_PIN*%
X363688000Y-235406800D03*
%TO.P,U2,2,P0.03_A1_D1_2*%
%TO.N,column 0*%
X363688000Y-237946800D03*
%TO.P,U2,3,P0.28_A2_D2_3*%
%TO.N,column 1*%
X363688000Y-240486800D03*
%TO.P,U2,4,P0.29_A3_D3_4*%
%TO.N,column 2*%
X363688000Y-243026800D03*
%TO.P,U2,5,P0.04_A4_D4_SDA_5*%
%TO.N,column 3*%
X363688000Y-245566800D03*
%TO.P,U2,6,P0.05_A5_D5_SCL_6*%
%TO.N,column 4*%
X363688000Y-248106800D03*
%TO.P,U2,7,P1.11_D6_TX_7*%
%TO.N,column 5*%
X363688000Y-250646800D03*
%TO.P,U2,8,P1.12_D7_RX_8*%
%TO.N,row 3*%
X347523000Y-250646800D03*
%TO.P,U2,9,P1.13_D8_SCK_9*%
%TO.N,row 2*%
X347523000Y-248106800D03*
%TO.P,U2,10,P1.14_D9_MISO_10*%
%TO.N,row 1*%
X347523000Y-245566800D03*
%TO.P,U2,11,P1.15_D10_MOSI_11*%
%TO.N,row 0*%
X347523000Y-243026800D03*
%TO.P,U2,12,3V3_12*%
%TO.N,unconnected-(U2-3V3-Pad12)*%
X347523000Y-240486800D03*
%TO.P,U2,13,GND_13*%
%TO.N,GND*%
X347523000Y-237946800D03*
%TO.P,U2,14,5V_14*%
%TO.N,unconnected-(U2-5V-Pad14)*%
X347523000Y-235406800D03*
D15*
%TO.P,U2,15,BAT_15*%
%TO.N,VBAT*%
X360078000Y-243426800D03*
%TO.P,U2,16,GND_16*%
%TO.N,GND*%
X360078000Y-240026800D03*
D16*
%TO.P,U2,17,NFC1_17*%
%TO.N,unconnected-(U2-NFC1-Pad17)*%
X351823000Y-252263700D03*
%TO.P,U2,18,NFC2_18*%
%TO.N,unconnected-(U2-NFC2-Pad18)*%
X349918000Y-252263700D03*
D17*
%TO.P,U2,19,PA31_SWDIO_19*%
%TO.N,unconnected-(U2-PA31_SWDIO-Pad19)*%
X356903000Y-234458300D03*
%TO.P,U2,20,PA30_SWCLK_20*%
%TO.N,unconnected-(U2-PA30_SWCLK-Pad20)*%
X354363000Y-234458300D03*
%TO.P,U2,21,RESET_21*%
%TO.N,unconnected-(U2-RESET-Pad21)*%
X356903000Y-236998300D03*
%TO.P,U2,22,GND_22*%
%TO.N,unconnected-(U2-GND-Pad22)*%
X354363000Y-236998300D03*
%TD*%
D12*
%TO.P,D24,1,K_1*%
%TO.N,row 0*%
X280967500Y-218665000D03*
%TO.P,D24,2,A_2*%
%TO.N,Net-(D24-A)*%
X283067500Y-218665000D03*
%TD*%
%TO.P,D7,1,K_1*%
%TO.N,row 1*%
X199127500Y-256625000D03*
%TO.P,D7,2,A_2*%
%TO.N,Net-(D7-A)*%
X201227500Y-256625000D03*
%TD*%
%TO.P,D15,1,K_1*%
%TO.N,row 2*%
X161152500Y-256500000D03*
%TO.P,D15,2,A_2*%
%TO.N,Net-(D15-A)*%
X163252500Y-256500000D03*
%TD*%
D11*
%TO.P,TP4,1,1_1*%
%TO.N,GND*%
X361642500Y-266265000D03*
%TD*%
D12*
%TO.P,D30,1,K_1*%
%TO.N,row 1*%
X280967500Y-237615000D03*
%TO.P,D30,2,A_2*%
%TO.N,Net-(D30-A)*%
X283067500Y-237615000D03*
%TD*%
%TO.P,D21,1,K_1*%
%TO.N,row 3*%
X104102500Y-285225000D03*
%TO.P,D21,2,A_2*%
%TO.N,Net-(D21-A)*%
X106202500Y-285225000D03*
%TD*%
%TO.P,D25,1,K_1*%
%TO.N,row 0*%
X299892500Y-209290000D03*
%TO.P,D25,2,A_2*%
%TO.N,Net-(D25-A)*%
X301992500Y-209290000D03*
%TD*%
%TO.P,D36,1,K_1*%
%TO.N,row 2*%
X280917500Y-256740000D03*
%TO.P,D36,2,A_2*%
%TO.N,Net-(D36-A)*%
X283017500Y-256740000D03*
%TD*%
%TO.P,D40,1,K_1*%
%TO.N,row 3*%
X299967500Y-266415000D03*
%TO.P,D40,2,A_2*%
%TO.N,Net-(D40-A)*%
X302067500Y-266415000D03*
%TD*%
D14*
%TO.P,U1,1,P0.02_A0_D0_1*%
%TO.N,BT_PIN*%
X86227500Y-235458500D03*
%TO.P,U1,2,P0.03_A1_D1_2*%
%TO.N,column 0*%
X86227500Y-237998500D03*
%TO.P,U1,3,P0.28_A2_D2_3*%
%TO.N,column 1*%
X86227500Y-240538500D03*
%TO.P,U1,4,P0.29_A3_D3_4*%
%TO.N,column 2*%
X86227500Y-243078500D03*
%TO.P,U1,5,P0.04_A4_D4_SDA_5*%
%TO.N,column 3*%
X86227500Y-245618500D03*
%TO.P,U1,6,P0.05_A5_D5_SCL_6*%
%TO.N,column 4*%
X86227500Y-248158500D03*
%TO.P,U1,7,P1.11_D6_TX_7*%
%TO.N,column 5*%
X86227500Y-250698500D03*
%TO.P,U1,8,P1.12_D7_RX_8*%
%TO.N,row 3*%
X70062500Y-250698500D03*
%TO.P,U1,9,P1.13_D8_SCK_9*%
%TO.N,row 2*%
X70062500Y-248158500D03*
%TO.P,U1,10,P1.14_D9_MISO_10*%
%TO.N,row 1*%
X70062500Y-245618500D03*
%TO.P,U1,11,P1.15_D10_MOSI_11*%
%TO.N,row 0*%
X70062500Y-243078500D03*
%TO.P,U1,12,3V3_12*%
%TO.N,unconnected-(U1-3V3-Pad12)*%
X70062500Y-240538500D03*
%TO.P,U1,13,GND_13*%
%TO.N,GND*%
X70062500Y-237998500D03*
%TO.P,U1,14,5V_14*%
%TO.N,unconnected-(U1-5V-Pad14)*%
X70062500Y-235458500D03*
D15*
%TO.P,U1,15,BAT_15*%
%TO.N,VBAT*%
X82617500Y-243478500D03*
%TO.P,U1,16,GND_16*%
%TO.N,GND*%
X82617500Y-240078500D03*
D16*
%TO.P,U1,17,NFC1_17*%
%TO.N,unconnected-(U1-NFC1-Pad17)*%
X74362500Y-252315400D03*
%TO.P,U1,18,NFC2_18*%
%TO.N,unconnected-(U1-NFC2-Pad18)*%
X72457500Y-252315400D03*
D17*
%TO.P,U1,19,PA31_SWDIO_19*%
%TO.N,unconnected-(U1-PA31_SWDIO-Pad19)*%
X79442500Y-234510000D03*
%TO.P,U1,20,PA30_SWCLK_20*%
%TO.N,unconnected-(U1-PA30_SWCLK-Pad20)*%
X76902500Y-234510000D03*
%TO.P,U1,21,RESET_21*%
%TO.N,unconnected-(U1-RESET-Pad21)*%
X79442500Y-237050000D03*
%TO.P,U1,22,GND_22*%
%TO.N,unconnected-(U1-GND-Pad22)*%
X76902500Y-237050000D03*
%TD*%
D12*
%TO.P,D26,1,K_1*%
%TO.N,row 0*%
X318892500Y-218615000D03*
%TO.P,D26,2,A_2*%
%TO.N,Net-(D26-A)*%
X320992500Y-218615000D03*
%TD*%
%TO.P,D33,1,K_1*%
%TO.N,row 1*%
X338117500Y-247040000D03*
%TO.P,D33,2,A_2*%
%TO.N,Net-(D33-A)*%
X340217500Y-247040000D03*
%TD*%
%TO.P,D3,1,K_1*%
%TO.N,row 0*%
X160977500Y-218550000D03*
%TO.P,D3,2,A_2*%
%TO.N,Net-(D3-A)*%
X163077500Y-218550000D03*
%TD*%
%TO.P,D31,1,K_1*%
%TO.N,row 1*%
X299992500Y-228315000D03*
%TO.P,D31,2,A_2*%
%TO.N,Net-(D31-A)*%
X302092500Y-228315000D03*
%TD*%
%TO.P,D22,1,K_1*%
%TO.N,row 0*%
X242792500Y-237565000D03*
%TO.P,D22,2,A_2*%
%TO.N,Net-(D22-A)*%
X244892500Y-237565000D03*
%TD*%
%TO.P,D29,1,K_1*%
%TO.N,row 1*%
X261917500Y-247065000D03*
%TO.P,D29,2,A_2*%
%TO.N,Net-(D29-A)*%
X264017500Y-247065000D03*
%TD*%
D13*
%TO.P,R1,1*%
%TO.N,VBAT*%
X81077500Y-260512500D03*
%TO.P,R1,2*%
%TO.N,BT_PIN*%
X81077500Y-262337500D03*
%TD*%
D12*
%TO.P,D5,1,K_1*%
%TO.N,row 0*%
X122802500Y-218225000D03*
%TO.P,D5,2,A_2*%
%TO.N,Net-(D5-A)*%
X124902500Y-218225000D03*
%TD*%
D18*
%TO.P,R4,1*%
%TO.N,BT_PIN*%
X351467500Y-266140000D03*
%TO.P,R4,2*%
%TO.N,GND*%
X353292500Y-266140000D03*
%TD*%
D12*
%TO.P,D39,1,K_1*%
%TO.N,row 2*%
X338167500Y-266315000D03*
%TO.P,D39,2,A_2*%
%TO.N,Net-(D39-A)*%
X340267500Y-266315000D03*
%TD*%
%TO.P,D16,1,K_1*%
%TO.N,row 2*%
X141977500Y-246975000D03*
%TO.P,D16,2,A_2*%
%TO.N,Net-(D16-A)*%
X144077500Y-246975000D03*
%TD*%
%TO.P,D42,1,K_1*%
%TO.N,row 3*%
X338292500Y-285415000D03*
%TO.P,D42,2,A_2*%
%TO.N,Net-(D42-A)*%
X340392500Y-285415000D03*
%TD*%
D11*
%TO.P,TP2,1,1_1*%
%TO.N,GND*%
X72202500Y-267825000D03*
%TD*%
D12*
%TO.P,D18,1,K_1*%
%TO.N,row 2*%
X103802500Y-266000000D03*
%TO.P,D18,2,A_2*%
%TO.N,Net-(D18-A)*%
X105902500Y-266000000D03*
%TD*%
%TO.P,D14,1,K_1*%
%TO.N,row 2*%
X180052500Y-266150000D03*
%TO.P,D14,2,A_2*%
%TO.N,Net-(D14-A)*%
X182152500Y-266150000D03*
%TD*%
%TO.P,D35,1,K_1*%
%TO.N,row 2*%
X261867500Y-266340000D03*
%TO.P,D35,2,A_2*%
%TO.N,Net-(D35-A)*%
X263967500Y-266340000D03*
%TD*%
%TO.P,D9,1,K_1*%
%TO.N,row 1*%
X161102500Y-237400000D03*
%TO.P,D9,2,A_2*%
%TO.N,Net-(D9-A)*%
X163202500Y-237400000D03*
%TD*%
D19*
%TO.P,R3,1*%
%TO.N,VBAT*%
X353192500Y-260990000D03*
%TO.P,R3,2*%
%TO.N,BT_PIN*%
X351367500Y-260990000D03*
%TD*%
D20*
%TO.N,column 0*%
X360460000Y-237020000D03*
X183127500Y-264450000D03*
X78702500Y-240875000D03*
X80027500Y-239250000D03*
X77202500Y-246900000D03*
X231160000Y-250145000D03*
%TO.N,column 2*%
X146852500Y-226300000D03*
X90806000Y-243078500D03*
%TO.N,column 4*%
X91102500Y-248150000D03*
X110452500Y-247425000D03*
%TO.N,column 1*%
X161052500Y-221150000D03*
X366185000Y-243945000D03*
X251175000Y-269550000D03*
X90766000Y-240538500D03*
%TO.N,column 3*%
X91177500Y-244950000D03*
X127927500Y-235200000D03*
%TO.N,row 2*%
X122777500Y-257200000D03*
X341985000Y-250770000D03*
X244110000Y-271495000D03*
X103752500Y-266750000D03*
X319010000Y-257545000D03*
X280885000Y-257570000D03*
X141877500Y-247750000D03*
X261835000Y-267220000D03*
X299760000Y-248295000D03*
X299760000Y-248295000D03*
X72977500Y-248150000D03*
X338135000Y-267070000D03*
%TO.N,row 1*%
X161127500Y-238400000D03*
X318860000Y-238445000D03*
X179977500Y-247900000D03*
X188077500Y-253175000D03*
X337985000Y-247895000D03*
X122927500Y-238550000D03*
X244210000Y-252445000D03*
X280935000Y-238545000D03*
X261910000Y-248145000D03*
X142127500Y-228975000D03*
X103827500Y-247900000D03*
X300010000Y-229295000D03*
X73102500Y-245625000D03*
%TO.N,row 3*%
X299985000Y-267170000D03*
X93452500Y-285225000D03*
X342810000Y-251395000D03*
X339585000Y-280295000D03*
X70102500Y-258475000D03*
X319185000Y-276470000D03*
X337385000Y-285520000D03*
%TO.N,row 0*%
X299860000Y-210145000D03*
X141902500Y-210025000D03*
X129377500Y-210375000D03*
X122802500Y-219225000D03*
X244110000Y-235120000D03*
X338135000Y-228970000D03*
X160927500Y-219750000D03*
X104277500Y-228850000D03*
X280985000Y-219570000D03*
X72202500Y-243200000D03*
X261985000Y-228870000D03*
X318910000Y-219495000D03*
X199127500Y-238400000D03*
X180002500Y-229225000D03*
%TO.N,BT_PIN*%
X74477500Y-242525000D03*
X79052500Y-262350000D03*
X76327500Y-256575000D03*
X74477500Y-239475000D03*
%TO.N,GND*%
X350442500Y-238215000D03*
%TD*%
%TO.N,column 0*%
D21*
X77202500Y-242375000D02*
X78702500Y-240875000D01*
X187460000Y-226335000D02*
X187460000Y-245442500D01*
X231175000Y-226600000D02*
X231175000Y-245572500D01*
X77202500Y-246900000D02*
X77202500Y-242375000D01*
X363688000Y-237946800D02*
X361386800Y-237946800D01*
X187460000Y-245442500D02*
X187442500Y-245460000D01*
X361386800Y-237946800D02*
X360460000Y-237020000D01*
X187450500Y-264440000D02*
X183162500Y-264440000D01*
X187450500Y-245468000D02*
X187450500Y-264440000D01*
X187442500Y-245460000D02*
X187450500Y-245468000D01*
X231177500Y-264620000D02*
X231182500Y-264625000D01*
X231177500Y-245575000D02*
X231177500Y-264620000D01*
X81279000Y-237998500D02*
X80027500Y-239250000D01*
X86227500Y-237998500D02*
X81279000Y-237998500D01*
X231175000Y-245572500D02*
X231177500Y-245575000D01*
%TO.N,Net-(D7-A)*%
X201227500Y-243778000D02*
X201227500Y-256625000D01*
X200369500Y-242920000D02*
X201227500Y-243778000D01*
%TO.N,column 2*%
X366163000Y-283209057D02*
X361727057Y-287645000D01*
X149392500Y-226355000D02*
X149372500Y-226335000D01*
X361727057Y-287645000D02*
X316235000Y-287645000D01*
X149392500Y-245385000D02*
X149392500Y-226355000D01*
X366163000Y-245501800D02*
X366163000Y-283209057D01*
X269282500Y-247817412D02*
X269282500Y-245550000D01*
X269282500Y-226480000D02*
X269302500Y-226500000D01*
X363688000Y-243026800D02*
X366163000Y-245501800D01*
X149372500Y-226335000D02*
X149372500Y-207390000D01*
X146887500Y-226335000D02*
X146852500Y-226300000D01*
X86227500Y-243078500D02*
X90806000Y-243078500D01*
X269302500Y-245530000D02*
X269282500Y-245550000D01*
X280660088Y-259195000D02*
X269282500Y-247817412D01*
X149372500Y-207390000D02*
X149317500Y-207335000D01*
X316235000Y-287645000D02*
X287785000Y-259195000D01*
X269302500Y-226500000D02*
X269302500Y-245530000D01*
X149372500Y-226335000D02*
X146887500Y-226335000D01*
X287785000Y-259195000D02*
X280660088Y-259195000D01*
X269282500Y-207425000D02*
X269282500Y-226480000D01*
%TO.N,Net-(D36-A)*%
X283017500Y-243818000D02*
X283017500Y-256740000D01*
X282209500Y-243010000D02*
X283017500Y-243818000D01*
%TO.N,column 5*%
X92142500Y-254960000D02*
X92142500Y-274055000D01*
X361329999Y-286345000D02*
X361735000Y-285939999D01*
X92150500Y-235915000D02*
X92150500Y-254952000D01*
X361735000Y-285939999D02*
X361735000Y-285926000D01*
X363688000Y-283973000D02*
X363688000Y-250646800D01*
X92142500Y-274055000D02*
X92137500Y-274060000D01*
X336435088Y-286345000D02*
X361329999Y-286345000D01*
X90489000Y-254960000D02*
X86227500Y-250698500D01*
X92142500Y-254960000D02*
X90489000Y-254960000D01*
X361735000Y-285926000D02*
X363688000Y-283973000D01*
X326532500Y-236020000D02*
X326527500Y-236025000D01*
X326532500Y-216975000D02*
X326532500Y-236020000D01*
X326502500Y-255075000D02*
X326502500Y-274105000D01*
X326482500Y-276392412D02*
X336435088Y-286345000D01*
X92150500Y-254952000D02*
X92142500Y-254960000D01*
X326527500Y-255050000D02*
X326502500Y-255075000D01*
X326527500Y-236025000D02*
X326527500Y-255050000D01*
X92150500Y-216838000D02*
X92147500Y-216835000D01*
X92150500Y-235915000D02*
X92150500Y-216838000D01*
X326502500Y-274105000D02*
X326482500Y-274125000D01*
X326482500Y-274125000D02*
X326482500Y-276392412D01*
%TO.N,Net-(D12-A)*%
X105077500Y-233375000D02*
X105877500Y-234175000D01*
X105877500Y-234175000D02*
X105877500Y-247050000D01*
%TO.N,column 4*%
X307392500Y-245630000D02*
X307392500Y-264680000D01*
X86227500Y-248158500D02*
X91094000Y-248158500D01*
X307407500Y-226550000D02*
X307392500Y-226565000D01*
X111192500Y-246685000D02*
X110452500Y-247425000D01*
X365363000Y-282877685D02*
X361470685Y-286770000D01*
X111242500Y-245485000D02*
X111192500Y-245435000D01*
X111192500Y-245435000D02*
X111192500Y-246685000D01*
X111242500Y-264460000D02*
X111242500Y-245485000D01*
X307407500Y-207500000D02*
X307407500Y-226550000D01*
X363688000Y-248106800D02*
X365363000Y-249781800D01*
X327215088Y-286770000D02*
X307417500Y-266972412D01*
X307417500Y-266972412D02*
X307417500Y-264705000D01*
X307392500Y-226565000D02*
X307392500Y-245630000D01*
X111192500Y-207267500D02*
X111185000Y-207260000D01*
X361470685Y-286770000D02*
X327215088Y-286770000D01*
X307392500Y-264680000D02*
X307417500Y-264705000D01*
X365363000Y-249781800D02*
X365363000Y-282877685D01*
X111192500Y-226360000D02*
X111192500Y-207267500D01*
X111192500Y-245435000D02*
X111192500Y-226360000D01*
X91094000Y-248158500D02*
X91102500Y-248150000D01*
%TO.N,Net-(D11-A)*%
X124119500Y-223820000D02*
X125002500Y-224703000D01*
X125002500Y-224703000D02*
X125002500Y-237450000D01*
%TO.N,column 1*%
X168377500Y-235875000D02*
X168377500Y-254990000D01*
X250232500Y-236092500D02*
X250225000Y-236100000D01*
X163995000Y-221150000D02*
X161052500Y-221150000D01*
X250525000Y-257225000D02*
X250525000Y-268900000D01*
X168377500Y-216802500D02*
X168377500Y-235875000D01*
X363688000Y-240486800D02*
X366185000Y-242983800D01*
X250242500Y-255165000D02*
X250242500Y-256942500D01*
X250232500Y-217025000D02*
X250232500Y-236092500D01*
X168360000Y-216785000D02*
X163995000Y-221150000D01*
X168360000Y-216785000D02*
X168377500Y-216802500D01*
X86227500Y-240538500D02*
X90766000Y-240538500D01*
X250242500Y-256942500D02*
X250525000Y-257225000D01*
X366185000Y-242983800D02*
X366185000Y-243945000D01*
X250225000Y-255147500D02*
X250242500Y-255165000D01*
X250525000Y-268900000D02*
X251175000Y-269550000D01*
X250225000Y-236100000D02*
X250225000Y-255147500D01*
%TO.N,Net-(D23-A)*%
X264092500Y-215418000D02*
X264092500Y-227940000D01*
X263159500Y-214485000D02*
X264092500Y-215418000D01*
%TO.N,Net-(D26-A)*%
X320992500Y-205618000D02*
X320992500Y-218615000D01*
X320334500Y-204960000D02*
X320992500Y-205618000D01*
%TO.N,Net-(D14-A)*%
X181304500Y-252450000D02*
X182152500Y-253298000D01*
X182152500Y-253298000D02*
X182152500Y-266150000D01*
%TO.N,Net-(D3-A)*%
X163077500Y-205628000D02*
X163077500Y-218550000D01*
X162244500Y-204795000D02*
X163077500Y-205628000D01*
%TO.N,Net-(D18-A)*%
X105902500Y-253253000D02*
X105902500Y-266000000D01*
X105069500Y-252420000D02*
X105902500Y-253253000D01*
%TO.N,Net-(D34-A)*%
X244792500Y-262768000D02*
X244792500Y-275790000D01*
X244109500Y-262085000D02*
X244792500Y-262768000D01*
%TO.N,Net-(D39-A)*%
X340267500Y-253373000D02*
X340267500Y-266315000D01*
X339429500Y-252535000D02*
X340267500Y-253373000D01*
%TO.N,column 3*%
X317930088Y-287170000D02*
X288367500Y-257607412D01*
X288367500Y-236315000D02*
X288342500Y-236290000D01*
X365763000Y-283043371D02*
X361636371Y-287170000D01*
X288367500Y-257607412D02*
X288367500Y-255340000D01*
X361636371Y-287170000D02*
X317930088Y-287170000D01*
X130267500Y-238615000D02*
X130287500Y-238635000D01*
X90509000Y-245618500D02*
X91177500Y-244950000D01*
X288367500Y-255340000D02*
X288367500Y-236315000D01*
X288342500Y-236290000D02*
X288342500Y-217190000D01*
X288350000Y-198125000D02*
X288350000Y-217182500D01*
X130287500Y-238635000D02*
X130287500Y-254860000D01*
X288350000Y-217182500D02*
X288342500Y-217190000D01*
X130267500Y-197660000D02*
X130267500Y-216735000D01*
X130267500Y-216735000D02*
X130267500Y-235810000D01*
X86227500Y-245618500D02*
X90509000Y-245618500D01*
X127927500Y-235200000D02*
X128537500Y-235810000D01*
X128537500Y-235810000D02*
X130267500Y-235810000D01*
X365763000Y-247641800D02*
X365763000Y-283043371D01*
X130267500Y-235810000D02*
X130267500Y-238615000D01*
X363688000Y-245566800D02*
X365763000Y-247641800D01*
%TO.N,Net-(D10-A)*%
X143194500Y-214195000D02*
X144177500Y-215178000D01*
X144177500Y-215178000D02*
X144177500Y-227900000D01*
%TO.N,Net-(D22-A)*%
X244102000Y-224060000D02*
X244892500Y-224850500D01*
X244892500Y-224850500D02*
X244892500Y-237565000D01*
%TO.N,Net-(D33-A)*%
X340217500Y-234248000D02*
X340217500Y-247040000D01*
X339454500Y-233485000D02*
X340217500Y-234248000D01*
%TO.N,Net-(D5-A)*%
X124112000Y-204720000D02*
X124902500Y-205510500D01*
X124902500Y-205510500D02*
X124902500Y-218225000D01*
%TO.N,Net-(D38-A)*%
X321117500Y-243888000D02*
X321117500Y-256790000D01*
X320319500Y-243090000D02*
X321117500Y-243888000D01*
%TO.N,Net-(D30-A)*%
X283067500Y-224798000D02*
X283067500Y-237615000D01*
X282229500Y-223960000D02*
X283067500Y-224798000D01*
%TO.N,Net-(D27-A)*%
X339459500Y-214435000D02*
X340292500Y-215268000D01*
X340292500Y-215268000D02*
X340292500Y-228140000D01*
%TO.N,Net-(D6-A)*%
X106177500Y-215398000D02*
X106177500Y-227825000D01*
X105074500Y-214295000D02*
X106177500Y-215398000D01*
%TO.N,Net-(D21-A)*%
X106202500Y-272658000D02*
X106202500Y-285225000D01*
X105064500Y-271520000D02*
X106202500Y-272658000D01*
%TO.N,Net-(D40-A)*%
X301294500Y-252800000D02*
X302067500Y-253573000D01*
X302067500Y-253573000D02*
X302067500Y-266415000D01*
%TO.N,Net-(D41-A)*%
X320344500Y-262165000D02*
X321292500Y-263113000D01*
X321292500Y-263113000D02*
X321292500Y-275765000D01*
%TO.N,Net-(D4-A)*%
X144077500Y-196003000D02*
X144077500Y-208625000D01*
X143194500Y-195120000D02*
X144077500Y-196003000D01*
%TO.N,Net-(D13-A)*%
X201252500Y-262775000D02*
X201252500Y-275525000D01*
X200377500Y-261900000D02*
X201252500Y-262775000D01*
%TO.N,Net-(D37-A)*%
X301967500Y-234448000D02*
X301967500Y-247390000D01*
X301269500Y-233750000D02*
X301967500Y-234448000D01*
%TO.N,Net-(D2-A)*%
X181287000Y-214245000D02*
X182102500Y-215060500D01*
X182102500Y-215060500D02*
X182102500Y-227875000D01*
%TO.N,Net-(D32-A)*%
X320319500Y-224025000D02*
X320992500Y-224698000D01*
X320992500Y-224698000D02*
X320992500Y-237690000D01*
%TO.N,Net-(D24-A)*%
X283067500Y-205743000D02*
X283067500Y-218665000D01*
X282209500Y-204885000D02*
X283067500Y-205743000D01*
%TO.N,Net-(D1-A)*%
X201202500Y-224610500D02*
X201202500Y-237575000D01*
X200387000Y-223795000D02*
X201202500Y-224610500D01*
%TO.N,Net-(D15-A)*%
X163252500Y-243778000D02*
X163252500Y-256500000D01*
X162319500Y-242845000D02*
X163252500Y-243778000D01*
%TO.N,Net-(D16-A)*%
X143194500Y-233270000D02*
X144077500Y-234153000D01*
X144077500Y-234153000D02*
X144077500Y-246975000D01*
%TO.N,Net-(D20-A)*%
X125427500Y-275550000D02*
X125427500Y-263178000D01*
X125427500Y-263178000D02*
X124169500Y-261920000D01*
%TO.N,Net-(D19-A)*%
X143214500Y-252320000D02*
X144027500Y-253133000D01*
X144027500Y-253133000D02*
X144027500Y-265950000D01*
%TO.N,Net-(D8-A)*%
X181304500Y-233335000D02*
X182077500Y-234108000D01*
X182077500Y-234108000D02*
X182077500Y-246900000D01*
%TO.N,Net-(D17-A)*%
X124927500Y-243703000D02*
X124927500Y-256550000D01*
X124119500Y-242895000D02*
X124927500Y-243703000D01*
%TO.N,Net-(D42-A)*%
X340392500Y-272568000D02*
X340392500Y-285415000D01*
X339409500Y-271585000D02*
X340392500Y-272568000D01*
%TO.N,Net-(D25-A)*%
X301277000Y-195585000D02*
X301992500Y-196300500D01*
X301992500Y-196300500D02*
X301992500Y-209290000D01*
%TO.N,Net-(D31-A)*%
X301269500Y-214650000D02*
X302092500Y-215473000D01*
X302092500Y-215473000D02*
X302092500Y-228315000D01*
%TO.N,Net-(D28-A)*%
X244104500Y-243035000D02*
X244942500Y-243873000D01*
X244942500Y-243873000D02*
X244942500Y-256615000D01*
%TO.N,Net-(D9-A)*%
X162299500Y-223795000D02*
X163202500Y-224698000D01*
X163202500Y-224698000D02*
X163202500Y-237400000D01*
%TO.N,Net-(D35-A)*%
X263967500Y-253423000D02*
X263967500Y-266340000D01*
X263169500Y-252625000D02*
X263967500Y-253423000D01*
%TO.N,Net-(D29-A)*%
X264017500Y-234425500D02*
X264017500Y-247065000D01*
X263152000Y-233560000D02*
X264017500Y-234425500D01*
%TO.N,VBAT*%
X72252500Y-260325000D02*
X72452500Y-260325000D01*
X361667500Y-259940000D02*
X360078000Y-258350500D01*
X82617500Y-243478500D02*
X82617500Y-258972500D01*
X360078000Y-258350500D02*
X360078000Y-243426800D01*
X72640000Y-260512500D02*
X81077500Y-260512500D01*
X361667500Y-260790000D02*
X361667500Y-259940000D01*
X361467500Y-260990000D02*
X361667500Y-260790000D01*
X82617500Y-258972500D02*
X81077500Y-260512500D01*
X72452500Y-260325000D02*
X72640000Y-260512500D01*
X353192500Y-260990000D02*
X361467500Y-260990000D01*
%TO.N,row 2*%
X143177500Y-246975000D02*
X141977500Y-246975000D01*
X186427500Y-275075000D02*
X186877500Y-275525000D01*
X141977500Y-246975000D02*
X141977500Y-247650000D01*
X338167500Y-266315000D02*
X338167500Y-267037500D01*
X242692500Y-272912500D02*
X244110000Y-271495000D01*
X186877500Y-275525000D02*
X199152500Y-275525000D01*
X280917500Y-257537500D02*
X280885000Y-257570000D01*
X152702500Y-256500000D02*
X143177500Y-246975000D01*
X122827500Y-256550000D02*
X122827500Y-257150000D01*
X166952500Y-258250000D02*
X166952500Y-265900000D01*
X261867500Y-267187500D02*
X261835000Y-267220000D01*
X280917500Y-256740000D02*
X280917500Y-257537500D01*
X242692500Y-275790000D02*
X242692500Y-272912500D01*
X161152500Y-256500000D02*
X162227500Y-257575000D01*
X319017500Y-257537500D02*
X319010000Y-257545000D01*
X70062500Y-248158500D02*
X72969000Y-248158500D01*
X122827500Y-257150000D02*
X122777500Y-257200000D01*
X261867500Y-266340000D02*
X261867500Y-267187500D01*
X180927500Y-267025000D02*
X185627500Y-267025000D01*
X162227500Y-257575000D02*
X166277500Y-257575000D01*
X161152500Y-256500000D02*
X152702500Y-256500000D01*
X299867500Y-248187500D02*
X299760000Y-248295000D01*
X341985000Y-250770000D02*
X344185000Y-248570000D01*
X180052500Y-266150000D02*
X180927500Y-267025000D01*
X299867500Y-247390000D02*
X299867500Y-248187500D01*
X167202500Y-266150000D02*
X180052500Y-266150000D01*
X338167500Y-267037500D02*
X338135000Y-267070000D01*
X166277500Y-257575000D02*
X166952500Y-258250000D01*
X186427500Y-267825000D02*
X186427500Y-275075000D01*
X166952500Y-265900000D02*
X167202500Y-266150000D01*
X103802500Y-266000000D02*
X103802500Y-266700000D01*
X185627500Y-267025000D02*
X186427500Y-267825000D01*
X141977500Y-247650000D02*
X141877500Y-247750000D01*
X103802500Y-266700000D02*
X103752500Y-266750000D01*
X347059800Y-248570000D02*
X347523000Y-248106800D01*
X72969000Y-248158500D02*
X72977500Y-248150000D01*
X344185000Y-248570000D02*
X347059800Y-248570000D01*
X319017500Y-256790000D02*
X319017500Y-257537500D01*
%TO.N,row 1*%
X142077500Y-228925000D02*
X142127500Y-228975000D01*
X280967500Y-237615000D02*
X280967500Y-238512500D01*
X299992500Y-228315000D02*
X299992500Y-229277500D01*
X179977500Y-246900000D02*
X179977500Y-247900000D01*
X345194800Y-247895000D02*
X337985000Y-247895000D01*
X338117500Y-247040000D02*
X338117500Y-247762500D01*
X242842500Y-253812500D02*
X244210000Y-252445000D01*
X70062500Y-245618500D02*
X73096000Y-245618500D01*
X338117500Y-247762500D02*
X337985000Y-247895000D01*
X103827500Y-247100000D02*
X103777500Y-247050000D01*
X299992500Y-229277500D02*
X300010000Y-229295000D01*
X347523000Y-245566800D02*
X345194800Y-247895000D01*
X191527500Y-256625000D02*
X188077500Y-253175000D01*
X161102500Y-238375000D02*
X161127500Y-238400000D01*
X280967500Y-238512500D02*
X280935000Y-238545000D01*
X122902500Y-238525000D02*
X122927500Y-238550000D01*
X142077500Y-227900000D02*
X142077500Y-228925000D01*
X318892500Y-238412500D02*
X318860000Y-238445000D01*
X242842500Y-256615000D02*
X242842500Y-253812500D01*
X318892500Y-237690000D02*
X318892500Y-238412500D01*
X122902500Y-237450000D02*
X122902500Y-238525000D01*
X199127500Y-256625000D02*
X191527500Y-256625000D01*
X261917500Y-247065000D02*
X261917500Y-248137500D01*
X261917500Y-248137500D02*
X261910000Y-248145000D01*
X161102500Y-237400000D02*
X161102500Y-238375000D01*
X103827500Y-247900000D02*
X103827500Y-247100000D01*
%TO.N,row 3*%
X126852500Y-276025000D02*
X126852500Y-267400000D01*
X70062500Y-250698500D02*
X70062500Y-258390000D01*
X109177500Y-275550000D02*
X123327500Y-275550000D01*
X104377500Y-286250000D02*
X107052500Y-286250000D01*
X123327500Y-276475000D02*
X123602500Y-276750000D01*
X107577500Y-285725000D02*
X107577500Y-277150000D01*
X299967500Y-267152500D02*
X299985000Y-267170000D01*
X104102500Y-285975000D02*
X104377500Y-286250000D01*
X128302500Y-265950000D02*
X141927500Y-265950000D01*
X107052500Y-286250000D02*
X107577500Y-285725000D01*
X338292500Y-281587500D02*
X339585000Y-280295000D01*
X126127500Y-276750000D02*
X126852500Y-276025000D01*
X107577500Y-277150000D02*
X109177500Y-275550000D01*
X347523000Y-250646800D02*
X343558200Y-250646800D01*
X123602500Y-276750000D02*
X126127500Y-276750000D01*
X338292500Y-285415000D02*
X337490000Y-285415000D01*
X123327500Y-275550000D02*
X123327500Y-276475000D01*
X343558200Y-250646800D02*
X342810000Y-251395000D01*
X299967500Y-266415000D02*
X299967500Y-267152500D01*
X319192500Y-276462500D02*
X319185000Y-276470000D01*
X319192500Y-275765000D02*
X319192500Y-276462500D01*
X338292500Y-285415000D02*
X338292500Y-281587500D01*
X104102500Y-285225000D02*
X93452500Y-285225000D01*
X337490000Y-285415000D02*
X337385000Y-285520000D01*
X126852500Y-267400000D02*
X128302500Y-265950000D01*
X104102500Y-285225000D02*
X104102500Y-285975000D01*
%TO.N,row 0*%
X104077500Y-228650000D02*
X104277500Y-228850000D01*
X125263980Y-218750000D02*
X126127500Y-217886480D01*
X299892500Y-210112500D02*
X299860000Y-210145000D01*
X123327500Y-218750000D02*
X125263980Y-218750000D01*
X299892500Y-209290000D02*
X299892500Y-210112500D01*
X242792500Y-237565000D02*
X242792500Y-236437500D01*
X160977500Y-219700000D02*
X160927500Y-219750000D01*
X318892500Y-218615000D02*
X318892500Y-219477500D01*
X280967500Y-218665000D02*
X280967500Y-219552500D01*
X338192500Y-228912500D02*
X338135000Y-228970000D01*
X242792500Y-236437500D02*
X244110000Y-235120000D01*
X318892500Y-219477500D02*
X318910000Y-219495000D01*
X104077500Y-227825000D02*
X104077500Y-228650000D01*
X122802500Y-218225000D02*
X122802500Y-219225000D01*
X180002500Y-227875000D02*
X180002500Y-229225000D01*
X341460000Y-239395000D02*
X341485000Y-239395000D01*
X141902500Y-210025000D02*
X141902500Y-208700000D01*
X141902500Y-208700000D02*
X141977500Y-208625000D01*
X72081000Y-243078500D02*
X72202500Y-243200000D01*
X280967500Y-219552500D02*
X280985000Y-219570000D01*
X341460000Y-232295000D02*
X341460000Y-239395000D01*
X126127500Y-213625000D02*
X129377500Y-210375000D01*
X126127500Y-217886480D02*
X126127500Y-213625000D01*
X261992500Y-228862500D02*
X261985000Y-228870000D01*
X199102500Y-238375000D02*
X199127500Y-238400000D01*
X160977500Y-218550000D02*
X160977500Y-219700000D01*
X345116800Y-243026800D02*
X347523000Y-243026800D01*
X338192500Y-228140000D02*
X338192500Y-228912500D01*
X199102500Y-237575000D02*
X199102500Y-238375000D01*
X70062500Y-243078500D02*
X72081000Y-243078500D01*
X122802500Y-218225000D02*
X123327500Y-218750000D01*
X261992500Y-227940000D02*
X261992500Y-228862500D01*
X338135000Y-228970000D02*
X341460000Y-232295000D01*
X341485000Y-239395000D02*
X345116800Y-243026800D01*
%TO.N,BT_PIN*%
X74477500Y-234150000D02*
X74477500Y-239475000D01*
X357760000Y-254597500D02*
X351367500Y-260990000D01*
X81077500Y-262337500D02*
X79065000Y-262337500D01*
X351367500Y-260990000D02*
X351367500Y-266040000D01*
X79065000Y-262337500D02*
X79052500Y-262350000D01*
X74477500Y-242525000D02*
X76327500Y-244375000D01*
X351367500Y-266040000D02*
X351467500Y-266140000D01*
X357760000Y-238170000D02*
X357760000Y-254597500D01*
X76327500Y-244375000D02*
X76327500Y-256575000D01*
X360523200Y-235406800D02*
X357760000Y-238170000D01*
X75602500Y-233025000D02*
X74477500Y-234150000D01*
X83794000Y-233025000D02*
X75602500Y-233025000D01*
X81102500Y-262362500D02*
X81077500Y-262337500D01*
X81102500Y-265975000D02*
X81102500Y-262362500D01*
X86227500Y-235458500D02*
X83794000Y-233025000D01*
X363688000Y-235406800D02*
X360523200Y-235406800D01*
%TO.N,GND*%
X350335000Y-268245000D02*
X352935000Y-268245000D01*
X347523000Y-237946800D02*
X350174300Y-237946800D01*
X80102500Y-255500000D02*
X80152500Y-255550000D01*
X81077500Y-267825000D02*
X81102500Y-267800000D01*
X72142500Y-240078500D02*
X82617500Y-240078500D01*
X80102500Y-242593500D02*
X80102500Y-255500000D01*
X69502500Y-265125000D02*
X72202500Y-267825000D01*
X70062500Y-237998500D02*
X72142500Y-240078500D01*
X349335000Y-261045000D02*
X349335000Y-267245000D01*
X354085000Y-256295000D02*
X349335000Y-261045000D01*
X354085000Y-241857500D02*
X354085000Y-256295000D01*
X350442500Y-238215000D02*
X354085000Y-241857500D01*
X72127500Y-257325000D02*
X69502500Y-259950000D01*
X353292500Y-267887500D02*
X353292500Y-266140000D01*
X349335000Y-267245000D02*
X350335000Y-268245000D01*
X353292500Y-266140000D02*
X361517500Y-266140000D01*
X361517500Y-266140000D02*
X361642500Y-266265000D01*
X69502500Y-259950000D02*
X69502500Y-265125000D01*
X78377500Y-257325000D02*
X72127500Y-257325000D01*
X82617500Y-240078500D02*
X80102500Y-242593500D01*
X72202500Y-267825000D02*
X81077500Y-267825000D01*
X350174300Y-237946800D02*
X350442500Y-238215000D01*
X80152500Y-255550000D02*
X78377500Y-257325000D01*
X352935000Y-268245000D02*
X353292500Y-267887500D01*
%TD*%
M02*
