M48
; DRILL file KiCad 10.0.3 date 2026-06-20T20:14:31
; FORMAT={-:-/ absolute / metric / decimal}
; #@! TF.CreationDate,2026-06-20T20:14:31+05:30
; #@! TF.GenerationSoftware,Kicad,Pcbnew,10.0.3
; #@! TF.FileFunction,NonPlated,1,2,NPTH
FMAT,2
METRIC
; #@! TA.AperFunction,NonPlated,NPTH,ComponentDrill
T1C0.500
; #@! TA.AperFunction,NonPlated,NPTH,ComponentDrill
T2C1.750
; #@! TA.AperFunction,NonPlated,NPTH,ComponentDrill
T3C2.200
; #@! TA.AperFunction,NonPlated,NPTH,ComponentDrill
T4C3.050
; #@! TA.AperFunction,NonPlated,NPTH,ComponentDrill
T5C4.000
%
G90
G05
T1
X215.75Y-228.675
X215.75Y-229.425
X215.75Y-230.175
X215.75Y-249.75
X215.75Y-250.5
X215.75Y-251.25
X215.75Y-270.375
X215.75Y-271.125
X215.75Y-271.875
X217.25Y-228.675
X217.25Y-229.425
X217.25Y-230.175
X217.25Y-249.75
X217.25Y-250.5
X217.25Y-251.25
X217.25Y-270.375
X217.25Y-271.125
X217.25Y-271.875
T2
X94.142Y-276.6
X94.147Y-257.5
X94.152Y-219.375
X94.155Y-238.455
X104.302Y-276.6
X104.307Y-257.5
X104.312Y-219.375
X104.316Y-238.455
X113.19Y-209.8
X113.197Y-228.9
X113.197Y-247.975
X113.247Y-267.0
X123.35Y-209.8
X123.357Y-228.9
X123.357Y-247.975
X123.407Y-267.0
X132.273Y-200.2
X132.273Y-219.275
X132.273Y-238.35
X132.292Y-257.4
X142.433Y-200.2
X142.433Y-219.275
X142.433Y-238.35
X142.452Y-257.4
X151.322Y-209.875
X151.377Y-228.875
X151.397Y-247.925
X161.482Y-209.875
X161.537Y-228.875
X161.558Y-247.925
X170.365Y-219.325
X170.382Y-238.415
X170.382Y-257.53
X180.525Y-219.325
X180.542Y-238.415
X180.542Y-257.53
X189.447Y-248.0
X189.456Y-266.98
X189.465Y-228.875
X199.607Y-248.0
X199.615Y-266.98
X199.625Y-228.875
X233.18Y-229.14
X233.182Y-248.115
X233.188Y-267.165
X243.34Y-229.14
X243.343Y-248.115
X243.347Y-267.165
X252.23Y-238.64
X252.237Y-219.565
X252.248Y-257.705
X262.39Y-238.64
X262.397Y-219.565
X262.407Y-257.705
X271.287Y-209.965
X271.287Y-248.09
X271.308Y-229.04
X281.447Y-209.965
X281.447Y-248.09
X281.467Y-229.04
X290.347Y-219.73
X290.347Y-238.83
X290.355Y-200.665
X290.373Y-257.88
X300.507Y-219.73
X300.507Y-238.83
X300.515Y-200.665
X300.532Y-257.88
X309.397Y-229.105
X309.397Y-248.17
X309.412Y-210.04
X309.423Y-267.245
X319.558Y-229.105
X319.558Y-248.17
X319.572Y-210.04
X319.582Y-267.245
X328.488Y-276.665
X328.507Y-257.615
X328.532Y-238.565
X328.537Y-219.515
X338.647Y-276.665
X338.667Y-257.615
X338.692Y-238.565
X338.697Y-219.515
T3
X109.377Y-219.35
X109.377Y-257.5
X147.477Y-238.375
X185.477Y-238.425
X185.552Y-257.5
X247.61Y-239.52
X247.61Y-258.62
X286.135Y-229.37
X323.86Y-258.52
X323.885Y-220.595
T4
X95.412Y-274.06
X95.417Y-254.96
X95.422Y-216.835
X95.425Y-235.915
X101.762Y-271.52
X101.767Y-252.42
X101.772Y-214.295
X101.775Y-233.375
X114.46Y-207.26
X114.468Y-226.36
X114.468Y-245.435
X114.517Y-264.46
X120.81Y-204.72
X120.817Y-223.82
X120.817Y-242.895
X120.867Y-261.92
X133.542Y-197.66
X133.542Y-216.735
X133.542Y-235.81
X133.562Y-254.86
X139.892Y-195.12
X139.892Y-214.195
X139.892Y-233.27
X139.912Y-252.32
X152.593Y-207.335
X152.647Y-226.335
X152.667Y-245.385
X158.942Y-204.795
X158.998Y-223.795
X159.017Y-242.845
X171.635Y-216.785
X171.653Y-235.875
X171.653Y-254.99
X177.985Y-214.245
X178.002Y-233.335
X178.002Y-252.45
X190.718Y-245.46
X190.725Y-264.44
X190.735Y-226.335
X197.067Y-242.92
X197.076Y-261.9
X197.085Y-223.795
X234.45Y-226.6
X234.452Y-245.575
X234.457Y-264.625
X240.8Y-224.06
X240.802Y-243.035
X240.807Y-262.085
X253.5Y-236.1
X253.507Y-217.025
X253.517Y-255.165
X259.85Y-233.56
X259.858Y-214.485
X259.868Y-252.625
X272.558Y-207.425
X272.558Y-245.55
X272.577Y-226.5
X278.907Y-204.885
X278.907Y-243.01
X278.928Y-223.96
X291.618Y-217.19
X291.618Y-236.29
X291.625Y-198.125
X291.642Y-255.34
X297.967Y-214.65
X297.967Y-233.75
X297.975Y-195.585
X297.993Y-252.8
X310.667Y-226.565
X310.667Y-245.63
X310.683Y-207.5
X310.692Y-264.705
X317.017Y-224.025
X317.017Y-243.09
X317.032Y-204.96
X317.042Y-262.165
X329.757Y-274.125
X329.777Y-255.075
X329.803Y-236.025
X329.808Y-216.975
X336.107Y-271.585
X336.127Y-252.535
X336.152Y-233.485
X336.157Y-214.435
T5
X99.222Y-276.6
X99.227Y-257.5
X99.233Y-219.375
X99.236Y-238.455
X118.27Y-209.8
X118.277Y-228.9
X118.277Y-247.975
X118.328Y-267.0
X137.352Y-200.2
X137.352Y-219.275
X137.352Y-238.35
X137.373Y-257.4
X156.403Y-209.875
X156.457Y-228.875
X156.477Y-247.925
X175.445Y-219.325
X175.463Y-238.415
X175.463Y-257.53
X194.528Y-248.0
X194.535Y-266.98
X194.545Y-228.875
X238.26Y-229.14
X238.262Y-248.115
X238.267Y-267.165
X257.31Y-238.64
X257.317Y-219.565
X257.327Y-257.705
X276.368Y-209.965
X276.368Y-248.09
X276.387Y-229.04
X295.428Y-219.73
X295.428Y-238.83
X295.435Y-200.665
X295.452Y-257.88
X314.477Y-229.105
X314.477Y-248.17
X314.493Y-210.04
X314.502Y-267.245
X333.567Y-276.665
X333.587Y-257.615
X333.613Y-238.565
X333.618Y-219.515
M30
